/* XPM */
static char * Black_xpm[] = {
"24 24 167 2",
"  	c None",
". 	c #000000",
"+ 	c #070505",
"@ 	c #0F0E0D",
"# 	c #171615",
"$ 	c #1F1E1E",
"% 	c #262424",
"& 	c #2C2B2A",
"* 	c #2F2D2D",
"= 	c #313030",
"- 	c #060504",
"; 	c #191817",
"> 	c #222120",
", 	c #292928",
"' 	c #323131",
") 	c #393836",
"! 	c #3D3D3B",
"~ 	c #3E3E3D",
"{ 	c #3B3A39",
"] 	c #040303",
"^ 	c #0D0D0C",
"/ 	c #171616",
"( 	c #222220",
"_ 	c #363535",
": 	c #3F3E3E",
"< 	c #464644",
"[ 	c #4C4B4A",
"} 	c #4D4C4B",
"| 	c #4C4B4B",
"1 	c #484746",
"2 	c #41413F",
"3 	c #090908",
"4 	c #141412",
"5 	c #2B2A29",
"6 	c #363635",
"7 	c #42413F",
"8 	c #555454",
"9 	c #5A5958",
"0 	c #5A5A59",
"a 	c #595958",
"b 	c #535151",
"c 	c #4B4A48",
"d 	c #3F3F3E",
"e 	c #040403",
"f 	c #100F0E",
"g 	c #1B1A1A",
"h 	c #272624",
"i 	c #343231",
"j 	c #413F3E",
"k 	c #4D4C4C",
"l 	c #5C5A59",
"m 	c #636362",
"n 	c #6A6967",
"o 	c #6A6867",
"p 	c #656362",
"q 	c #51504F",
"r 	c #454443",
"s 	c #090808",
"t 	c #151413",
"u 	c #201F1F",
"v 	c #2D2D2C",
"w 	c #3B3A3A",
"x 	c #595857",
"y 	c #6B6B6A",
"z 	c #777575",
"A 	c #7F7E7D",
"B 	c #787877",
"C 	c #706F6E",
"D 	c #646362",
"E 	c #474746",
"F 	c #3A3A39",
"G 	c #020100",
"H 	c #0D0C0C",
"I 	c #191716",
"J 	c #242423",
"K 	c #545351",
"L 	c #666563",
"M 	c #767574",
"N 	c #8F8E8D",
"O 	c #939290",
"P 	c #858482",
"Q 	c #787775",
"R 	c #666665",
"S 	c #565555",
"T 	c #3A3939",
"U 	c #2D2C2B",
"V 	c #100E0D",
"W 	c #1A1A19",
"X 	c #282726",
"Y 	c #464443",
"Z 	c #6B6A6A",
"` 	c #898786",
" .	c #999897",
"..	c #9C9C99",
"+.	c #757473",
"@.	c #555554",
"#.	c #383636",
"$.	c #2B2928",
"%.	c #050404",
"&.	c #10100E",
"*.	c #1B1B1A",
"=.	c #292828",
"-.	c #6E6C6B",
";.	c #868583",
">.	c #969493",
",.	c #7E7D7D",
"'.	c #6E6C6C",
").	c #5E5D5C",
"!.	c #4F4F4D",
"~.	c #262624",
"{.	c #272726",
"].	c #353534",
"^.	c #545453",
"/.	c #797978",
"(.	c #7D7C7A",
"_.	c #807E7D",
":.	c #70706F",
"<.	c #61605E",
"[.	c #474646",
"}.	c #393938",
"|.	c #2C2C2B",
"1.	c #0E0D0D",
"2.	c #1A1919",
"3.	c #313130",
"4.	c #686766",
"5.	c #676665",
"6.	c #5E5D5D",
"7.	c #3D3C3A",
"8.	c #31302F",
"9.	c #191917",
"0.	c #030202",
"a.	c #0C0B0B",
"b.	c #161515",
"c.	c #21201F",
"d.	c #434241",
"e.	c #515050",
"f.	c #444342",
"g.	c #1D1B1B",
"h.	c #111110",
"i.	c #080807",
"j.	c #121111",
"k.	c #41403F",
"l.	c #3D3B3A",
"m.	c #2F2E2D",
"n.	c #121211",
"o.	c #151514",
"p.	c #302F2E",
"q.	c #343332",
"r.	c #333231",
"s.	c #282727",
"t.	c #232221",
"u.	c #0B0909",
"v.	c #020000",
"w.	c #070705",
"x.	c #151412",
"y.	c #1F1F1E",
"z.	c #242322",
"A.	c #161615",
"B.	c #070605",
"C.	c #151414",
"D.	c #191918",
"E.	c #181716",
"F.	c #11100F",
"G.	c #070504",
"H.	c #0C0C0B",
"I.	c #030302",
"J.	c #010000",
"                                                ",
"                . . . . . . . .                 ",
"            . . + @ # $ % & * = . .             ",
"          . . - @ ; > , ' ) ! ~ ~ { .           ",
"        . . ] ^ / ( & _ : < [ } | 1 2 .         ",
"      . . . 3 4 $ 5 6 7 } 8 9 0 a b c d .       ",
"    . . . e f g h i j k l m n o p l q r ) .     ",
"    . . . s t u v w c x y z A B C D 8 E F .     ",
"  . . . G H I J ' 7 K L M N O P Q R S 1 T U .   ",
"  . . . ] V W X _ Y S Z `  ...` +.R @.Y #.$..   ",
"  . . . %.&.*.=.#.E 9 -.;.>. .,.'.).!.d i ~..   ",
"  . . . %.&.*.{.].Y ^.L /.(._.:.<.K [.}.|.u .   ",
"  . . . e 1.2.% 3.~ | 0 L 4.5.6.K [.7.8.J 9..   ",
"  . . . 0.a.b.c.|.) d.| e.K K [ f.F 8.h g.h..   ",
"  . . . . i.j.*.J v _ ~ d.d.k.l._ m.% g.n.3 .   ",
"  . . . . e H o.g.J 5 p.i q.r.v s.t.W n.u.v..   ",
"    . . . . w.^ x.g y.z.% h J c.g.A.&.s v..     ",
"    . . . . . B.H h.C./ D.9.E.C.F.a.G.. . .     ",
"      . . . . . ] i.u.H ^ ^ H.3 - v.. . .       ",
"        . . . . . . v.I.I.I.J.. . . . .         ",
"          . . . . . . . . . . . . . .           ",
"            . . . . . . . . . . . .             ",
"                . . . . . . . .                 ",
"                                                "};
