/* XPM */
static char * White_xpm[] = {
"24 24 192 2",
"  	c None",
". 	c #DDDDDD",
"+ 	c #E3E2E2",
"@ 	c #EAE9E9",
"# 	c #EFEEEE",
"$ 	c #F5F4F4",
"% 	c #FAF9F9",
"& 	c #FEFDFC",
"* 	c #FFFFFF",
"= 	c #D6D6D6",
"- 	c #DCDBDB",
"; 	c #E1E1E1",
"> 	c #E7E7E7",
", 	c #EEEEED",
"' 	c #F5F5F4",
") 	c #FBFBFA",
"! 	c #D3D3D3",
"~ 	c #D9D8D8",
"{ 	c #DFDFDF",
"] 	c #E6E5E5",
"^ 	c #ECEBEB",
"/ 	c #F4F3F2",
"( 	c #FBFAFA",
"_ 	c #CECDCD",
": 	c #D6D6D5",
"< 	c #DBDBDB",
"[ 	c #E2E1E1",
"} 	c #E9E8E7",
"| 	c #F0F0EF",
"1 	c #F8F7F7",
"2 	c #C6C5C5",
"3 	c #D2D2D1",
"4 	c #D7D7D7",
"5 	c #E4E4E3",
"6 	c #EBEBEA",
"7 	c #F3F2F2",
"8 	c #FCFBFB",
"9 	c #FFFEFE",
"0 	c #BEBDBD",
"a 	c #CBCAC9",
"b 	c #D3D3D2",
"c 	c #D8D8D8",
"d 	c #E5E5E5",
"e 	c #EDECEC",
"f 	c #FEFEFD",
"g 	c #FDFCFC",
"h 	c #C2C1C0",
"i 	c #D4D3D3",
"j 	c #DADAD8",
"k 	c #E0DFDF",
"l 	c #E6E6E5",
"m 	c #F6F5F5",
"n 	c #FFFFFE",
"o 	c #FAFAF9",
"p 	c #F3F2F1",
"q 	c #B8B7B6",
"r 	c #C4C2C2",
"s 	c #CFCECE",
"t 	c #D5D4D3",
"u 	c #E6E6E6",
"v 	c #FEFEFE",
"w 	c #F6F6F5",
"x 	c #EFEFEE",
"y 	c #E8E7E7",
"z 	c #BAB8B8",
"A 	c #C5C4C3",
"B 	c #CECECE",
"C 	c #DFDFDE",
"D 	c #F9F8F7",
"E 	c #F1F1F0",
"F 	c #EBEAEA",
"G 	c #B9B9B7",
"H 	c #D3D2D2",
"I 	c #D8D8D7",
"J 	c #DDDDDC",
"K 	c #E9E9E9",
"L 	c #F0EFEF",
"M 	c #F6F6F6",
"N 	c #FCFCFB",
"O 	c #F7F7F6",
"P 	c #F1F1F1",
"Q 	c #E0E0DF",
"R 	c #B9B8B6",
"S 	c #C3C2C1",
"T 	c #CDCDCD",
"U 	c #D7D6D6",
"V 	c #E1E1E0",
"W 	c #EBEBEB",
"X 	c #F1F0F0",
"Y 	c #E1E0E0",
"Z 	c #DCDBDA",
"` 	c #B6B6B5",
" .	c #C1C1C0",
"..	c #CCCCCC",
"+.	c #D1D0D0",
"@.	c #D5D5D3",
"#.	c #DEDDDD",
"$.	c #E2E2E2",
"%.	c #E7E6E6",
"&.	c #F4F3F3",
"*.	c #F4F4F3",
"=.	c #F3F3F2",
"-.	c #DCDCDB",
";.	c #B5B4B3",
">.	c #BEBEBD",
",.	c #C9C8C7",
"'.	c #D2D2D2",
").	c #DBDADA",
"!.	c #DFDEDD",
"~.	c #E2E2E1",
"{.	c #ECECEB",
"].	c #E9E9E8",
"^.	c #B2B1B1",
"/.	c #BBBAB9",
"(.	c #C4C3C2",
"_.	c #D0D0D0",
":.	c #D7D7D6",
"<.	c #E0E0E0",
"[.	c #E5E5E4",
"}.	c #E5E4E4",
"|.	c #DDDCDC",
"1.	c #DADAD9",
"2.	c #CACAC9",
"3.	c #BFBFBE",
"4.	c #AEAEAD",
"5.	c #B7B5B5",
"6.	c #C8C7C6",
"7.	c #CDCDCC",
"8.	c #DCDCDC",
"9.	c #D4D2D1",
"0.	c #CAC9C9",
"a.	c #C0BFBE",
"b.	c #B7B6B5",
"c.	c #B2B1B0",
"d.	c #B9B8B8",
"e.	c #C1C0C0",
"f.	c #CAC8C7",
"g.	c #D0D0CF",
"h.	c #D0CFCE",
"i.	c #BFBEBD",
"j.	c #B6B5B5",
"k.	c #ADACAB",
"l.	c #B3B3B2",
"m.	c #BBB9B8",
"n.	c #C7C6C5",
"o.	c #CECECD",
"p.	c #D1D1D1",
"q.	c #D0D0CE",
"r.	c #CAC9C8",
"s.	c #BCBCBB",
"t.	c #B5B4B4",
"u.	c #ADADAB",
"v.	c #ADACAC",
"w.	c #B8B8B7",
"x.	c #C3C3C2",
"y.	c #CCCBCB",
"z.	c #CDCCCC",
"A.	c #CDCDCB",
"B.	c #C8C6C6",
"C.	c #B8B7B7",
"D.	c #ABAAAA",
"E.	c #ACACAB",
"F.	c #B1B1B0",
"G.	c #B6B5B4",
"H.	c #BAB9B8",
"I.	c #BEBDBC",
"J.	c #C0C0BF",
"K.	c #C2C1C1",
"L.	c #C1C0BF",
"M.	c #BBBBB9",
"N.	c #B3B2B2",
"O.	c #AEADAD",
"P.	c #A8A7A7",
"Q.	c #AAA9A9",
"R.	c #B4B3B3",
"S.	c #B5B5B4",
"T.	c #B7B7B5",
"U.	c #B4B3B2",
"V.	c #B0B0AF",
"W.	c #ADADAC",
"X.	c #A9A8A8",
"Y.	c #A5A4A3",
"Z.	c #A6A6A5",
"`.	c #A8A8A7",
" +	c #ABABAA",
".+	c #AAAAA9",
"++	c #A7A6A5",
"@+	c #A4A3A3",
"#+	c #9F9F9E",
"$+	c #A3A2A2",
"%+	c #A0A09F",
"&+	c #9E9E9D",
"                                                ",
"                . + @ # $ % & *                 ",
"            = - ; > , ' ) * * * * *             ",
"          ! ~ { ] ^ / ( * * * * * * *           ",
"        _ : < [ } | 1 * * * * * * * * *         ",
"      2 3 4 . 5 6 7 8 * * * * * * * * * 9       ",
"    0 a b c { d e ' f * * * * * * * * * g '     ",
"    h _ i j k l , m n * * * * * * * * * o p     ",
"  q r s t j k u e $ f * * * * * * * * v w x y   ",
"  z A B ! ~ C d ^ 7 o * * * * * * * 9 D E F 5   ",
"  G A B H I J + K L M N * * * * * g O P ^ l Q   ",
"  R S T 3 U < V l W X m o N N ) D ' X W u Y Z   ",
"  `  ...+.@.~ #.$.%.W x P &.*.=.| e @ d V -.3   ",
"  ;.>.,.B '.U ).!.~.l } F ^ {.6 ].u + k < t ,.  ",
"  ^./.(..._.b :.).#.<.~.5 [.}.5 ~.k |.1.@.2.3.  ",
"  4.5.3.6.7._.b = ~ < 8.#.!.!.J -.1.:.9.0.a.b.  ",
"    c.d.e.f.7.g.3 t : 4 c c c 4 = i h.6.i.j.    ",
"    k.l.m.e.n...o._.p.'.H b H 3 q.r.S s.t.u.    ",
"      v.l.w.i.x.6.y.z._ o.A.a B.(.0 C.c.D.      ",
"        E.F.G.H.I.J. .S K.L.>.M.C.N.O.P.        ",
"          Q.O.F.R.S.b.q T.G.U.V.W.X.Y.          ",
"            Z.`.Q.k.W.O.W. +.+++@+#+            ",
"                $+@+@+@+@+$+%+&+                ",
"                                                "};
